<?xml version="1.0" encoding="utf-8"?>
<!-- Generator: Adobe Illustrator 24.0.0, SVG Export Plug-In . SVG Version: 6.00 Build 0)  -->
<svg version="1.1" id="Layer_1" xmlns="http://www.w3.org/2000/svg" xmlns:xlink="http://www.w3.org/1999/xlink" x="0px" y="0px"
	 viewBox="0 0 907.1 907.1" style="enable-background:new 0 0 907.1 907.1;" xml:space="preserve">
<style type="text/css">
	.st0{fill:#FFFFFF;}
</style>
<g id="layer1" transform="translate(-260.04375,970.72016)">
	<path id="path4295" class="st0" d="M395.6-221.5c14.7-43.3,36.4-88.1,66-136.6c17.5-28.7,23-39.4,28.2-55c5.5-16.6,13.6-31,20-35.4
		c3.5-2.4,7.7-3.2,19.8-4c9.1-0.6,16.9-0.4,19.2,0.5c2.1,0.8,5.6,1,7.7,0.5c9-2.2,29.6-11.4,42-18.8c7.3-4.4,16.9-9.5,21.3-11.5
		c7.7-3.4,8-3.7,9.7-11.5l1.8-8l-8-8.2c-19.1-19.5-29.8-42.8-33.7-73.1c-0.6-4.3-2.4-9.2-4.5-12c-2-2.6-4.6-7.1-5.8-10
		c-2.9-6.9-7.8-26.5-7.8-31.2c0-2-1.5-6.4-3.3-9.8c-2.6-4.9-3-6.9-1.8-10.2c1.2-3.4,2.3-4.1,6.5-4.2c4.9-0.1,5-0.3,4.6-5.1
		c-0.3-2.8-0.5-15.2-0.6-27.6c-0.1-19,0.5-25.9,3.9-43.6c2.2-11.5,3.5-21.5,2.8-22.2c-2.2-2.2-69.3-21.7-74.7-21.7c-2,0-3,0.9-3,2.8
		c0.7,3.7,2.2,11.7,4.3,22.7l2.2,21.1c1.2,11.6,3.8,28.4,5.8,37.3c5,22.7,9.6,47.5,9.6,51.7c0,1.9,1.2,9.4,2.7,16.7
		c1.5,7.2,4.2,21,5.9,30.6c8.6,47.9,8.3,45.9,6.3,45.9c-1.3,0-3.3-8.6-6.1-25.5c-1.9-12-4.6-21.2-6.2-21.2c-0.6,0-1.1,1.5-1.1,3.3
		c0.1,6.4,5.8,45.7,7.9,54.3c2.3,9.3,2.8,18.3,1.4,23.7c-1.2,4.5-2.5,4.1-4.8-1.5l-2-4.7l-0.9,5.8c-0.7,4.8-1.5,5.9-4.4,6.2
		c-2,0.2-4.6,1.4-5.9,2.6c-3.9,3.5-17.3,2.9-21.4-1.1c-1.9-1.8-4.9-3.3-6.7-3.3c-3,0-3.2-0.6-2.8-10.3c0.2-5.6,1-14.8,1.8-20.4
		c1.6-11.8,0.8-69.7-1.4-102.8c-0.8-12.4-1.9-49-2.4-81.3c-0.6-40.7-1.4-59.1-2.5-60c-2.9-2.3-17.3-5.7-28.4-6.7
		c-12.9-1.2-17.7-2.8-17.7-6c0-4.6,16.3-21,34.2-34.5c9.8-7.4,18.9-15.3,20.2-17.5c1.3-2.2,4.8-5.1,7.8-6.5c3-1.4,14.7-10.2,26-19.5
		c11.2-9.3,26-21,32.8-25.9c6.8-4.9,21.4-15.4,32.4-23.3c11-7.9,25.4-17.8,32.1-22c6.6-4.2,13.8-9,16-10.7l4-3.1l20.1,6.3
		c86.5,27,148.1,47.1,198.7,64.7c52.9,18.5,69.3,24.7,88.8,33.7c10.9,5,23.2,10.3,27.4,11.6s9.1,3.7,10.9,5.1c2.9,2.3,3,2.9,1.2,5.1
		c-3.5,4.2-22.2,12.9-30.3,14c-8.8,1.2-26.1,11.3-92,53.6L829-743l0.9,9.8c0.5,5.4,2.3,15.5,3.9,22.5c3,12.8,3.3,29,0.6,39.1
		c-1.1,4-0.9,4.2,2.4,3.1c8.9-2.8,12.2-2.6,15.7,1.2c4.7,5,6,20.8,2.5,29.2c-1.3,3.1-2.8,9.3-3.2,13.8c-2,18.7-19.4,43.8-32,46.2
		c-2.7,0.5-5.5,1.7-6.2,2.6c-0.7,0.9-3.4,8.4-6,16.7l-4.7,15l8,16.3c4.4,9,9.1,20.5,10.5,25.5c2.8,10.1,2.5,9.8,27.6,29.4
		c14.7,11.4,18.7,15.5,32.1,32.2c4,5,11.6,12.6,16.8,16.8c5.2,4.2,15.1,12.7,21.9,18.9c10.5,9.4,13,11,16,10.2
		c13.4-3.4,14.1-3.2,24.7,7.5c5.5,5.5,13.6,13.2,18.1,17.1c15.9,13.7,27,39.3,54.6,125.7c6.4,20.1,12.4,41.4,13.3,47.4
		c6.8,40.4,6.8,80.7,6.8,122l0.9,3.3H713.6H373C373-135,383.1-184.9,395.6-221.5L395.6-221.5z M530.7-536.2
		c-0.6-10.2-3.2-14-3.1-4.7c0,7.1,1.3,13,2.7,13.1C530.7-527.9,530.9-531.6,530.7-536.2z M545.9-517.8c-2.1-6-4.7-25.7-3.8-28.2
		c1.5-3.9,2.2-2.1,5.2,13.4c2,10.2,2.3,13.9,1,15.2C547-516.1,546.4-516.2,545.9-517.8z"/>
</g>
</svg>
