<?xml version="1.0" encoding="utf-8"?>
<!-- Generator: Adobe Illustrator 24.0.0, SVG Export Plug-In . SVG Version: 6.00 Build 0)  -->
<svg version="1.1" id="Layer_1" xmlns="http://www.w3.org/2000/svg" xmlns:xlink="http://www.w3.org/1999/xlink" x="0px" y="0px"
	 viewBox="0 0 438.7 139.4" style="enable-background:new 0 0 438.7 139.4;" xml:space="preserve">
<style type="text/css">
	.st0{fill:#342D6E;}
	.st1{fill:#8CE95D;}
	.st2{fill:#FFFFFF;}
</style>
<path class="st0" d="M107.9,141.7"/>
<g>
	<path class="st0" d="M112.9-1.4"/>
	<path class="st1" d="M87.4,9.7c9,0,13.5,6.1,13.5,15.4V86c0,9.6-3.5,17-16.2,17H65.2v33.8H42.5V9.7H87.4z M65.2,32V82h11.3
		c1.9,0,2.2-0.7,2.2-2.6V34.5c0-1.6-0.5-2.5-2-2.5H65.2z"/>
	<path class="st1" d="M168.7,85.1c0,5.6-3.6,11.2-10.2,11.2l12,40.5h-23.6l-11-40.5h-3v40.5h-22.8V9.7h43.3
		c10.7,0,15.4,6.5,15.4,16.5V85.1z M132.8,32v43.8H144c1.7,0,2.2-0.7,2.2-2.6V34.6c0-1.6-0.6-2.6-2.2-2.6H132.8z"/>
	<path class="st1" d="M247.1,9.7h44.4l3.9,23.7h-24.9v30.1h18.9v21.9h-18.9v51.4h-23.5V9.7z"/>
	<path class="st1" d="M302.5,9.7h22.8v127.1h-22.8V9.7z"/>
	<path class="st1" d="M334.8,9.7h23.5v103.4h23l-3.9,23.7h-42.5V9.7z"/>
	<path class="st1" d="M388.3,9.7h44.4l3.9,23.7h-24.9v30.1h18.9v21.9h-18.9v27.7h23.9l-3.9,23.7h-43.5V9.7z"/>
	<g>
		<path class="st1" d="M222.2,9.7h-7.7v24.7v2.2v75.3c0,1.9-0.3,2.6-2.2,2.6h-8.7c-1.9,0-2.2-0.7-2.2-2.6V36.7v-2.2V9.7h-7.6
			c-10.7,0-15.4,6.5-15.4,16.5v92.5c0,9.6,3.6,18.1,16.4,18.1h26.5c12.8,0,16.4-8.4,16.4-18.1V26.2C237.6,16.2,232.9,9.7,222.2,9.7z
			"/>
		<path class="st2" d="M204.7,4.1h6.8v47h-6.8V4.1z"/>
	</g>
	<path class="st2" d="M2,15v-3.2h22.5c0.4,0,0.7-0.1,0.8-0.2c0.1-0.1,0.2-0.4,0.2-0.8c0-0.2,0-0.4,0-0.5c0-0.2,0-0.3-0.1-0.5l4,1.1
		c0.1,0.3,0.1,0.8,0.1,1.3c0,1-0.2,1.7-0.6,2.1c-0.5,0.5-1.3,0.8-2.4,0.8H2z"/>
	<path class="st2" d="M17.6,21.8l-0.2-0.1v-3.1h7.5c0.4,0,0.6-0.2,0.6-0.7c0-0.2,0-0.4,0-0.6c0-0.2,0-0.3,0-0.3l4,0.9
		c0,0.1,0,0.3,0.1,0.5c0,0.2,0,0.4,0,0.7c0,0.9-0.2,1.6-0.6,2c-0.5,0.5-1.3,0.7-2.4,0.7H17.6z"/>
	<path class="st2" d="M17.6,28.6l-0.2-0.1v-3.1h7.5c0.4,0,0.6-0.2,0.6-0.7c0-0.2,0-0.4,0-0.6c0-0.2,0-0.3,0-0.3l4,0.9
		c0,0.1,0,0.3,0.1,0.5c0,0.2,0,0.4,0,0.7c0,0.9-0.2,1.6-0.6,2c-0.5,0.5-1.3,0.7-2.4,0.7H17.6z"/>
	<path class="st2" d="M29.1,42.5l-19-5.1v-3.2l15.3,4v-7.3H35v3.2h-5.5v8.3H29.1z"/>
	<path class="st2" d="M10.1,51.2v-7.4l4,1.1v3h10.2c0.8,0,1.2-0.6,1.2-1.8c0-0.9-0.1-1.5-0.3-1.8l0.1-0.1l4,0.8
		c0.3,0.4,0.4,1,0.4,1.8c0,2.8-1.8,4.2-5.4,4.2H10.1z"/>
	<path class="st2" d="M10.1,58.1v-3.2h14.8c0.4,0,0.6-0.2,0.6-0.7c0-0.2,0-0.3,0-0.5s0-0.3-0.1-0.5l4,1.1c0.1,0.3,0.1,0.6,0.1,0.8
		c0,2-1,3-3,3H10.1z"/>
	<path class="st2" d="M10.1,73.6v-3.2l11.9-6l-0.2-0.1h-7.8V66l-4-0.9v-3.8H17c2.2,0,4.1,0.4,5.8,1.2l1.5,0.8l0.5-0.3
		c0.6-0.4,1-0.8,1-1.3c0,0,0-0.1,0-0.2c0-0.1,0-0.2,0-0.2v-0.4l3.8,0.9v0.9c0,1.1-0.4,1.8-1.2,2.3l-2,1L18,69.8l0.2,0.1h7.3v-1.7
		l4,1v3.8h-6.4c-2.1,0-4-0.4-5.7-1.3L15.8,71l-3.9,2c-0.2,0.1-0.4,0.2-0.6,0.3c-0.2,0.1-0.4,0.3-0.7,0.4L10.1,73.6z"/>
	<path class="st2" d="M10.1,86.6v-3.2h14.8c0.4,0,0.6-0.2,0.6-0.7c0-0.2,0-0.3,0-0.5s0-0.3-0.1-0.5l4,1.1c0.1,0.3,0.1,0.6,0.1,0.8
		c0,2-1,3-3,3H10.1z"/>
	<path class="st2" d="M26,101.9c-7,0-12.4-1.6-16.1-4.7v-0.3l2.1-2.1h0.2c3,2.6,7.3,3.9,13.1,3.9v-5.2c0-0.3-0.5-0.5-1.5-0.5H2v-3.2
		h18.3c1.1,0,2.2,0.2,3.3,0.5l1.8,0.6v-2.2l4.1,0.9v12.2H26z"/>
	<path class="st2" d="M18,111.9v-7.1h3.1v7.1H18z"/>
	<path class="st2" d="M13.9,125.4l-3.7-1v-10.7l4,1.1v5.7c0,0.1,0.1,0.2,0.3,0.2h9.8c0.4,0,0.6-0.1,0.8-0.2c0.3-0.4,0.5-1.5,0.5-3.4
		c0-1.5-0.1-2.6-0.3-3.1l0.2-0.1l3.9,1c0.3,0.7,0.4,1.7,0.4,3c0,2.4-0.5,4-1.6,4.9c-0.8,0.7-2.2,1-4.3,1h-5.9c-1,0-2-0.2-2.8-0.5
		l-1-0.4v2.3L13.9,125.4z"/>
	<path class="st2" d="M10.1,136.8v-3.2h13.7c0.5,0,0.8-0.1,1-0.2c0.2-0.1,0.4-0.4,0.5-0.8c0.1-0.4,0.2-1.2,0.2-2.4
		c0-1.2-0.1-2.4-0.4-3.5l0.1-0.1l4,0.9c0.3,0.7,0.4,1.8,0.4,3.3c0,2.3-0.5,3.9-1.6,4.7c-1.1,0.9-2.6,1.3-4.6,1.3H10.1z"/>
</g>
</svg>
